<svg width="223" height="233" viewBox="0 0 223 233" fill="none" xmlns="http://www.w3.org/2000/svg">
<path d="M49.1525 137.774C56.3667 129.085 58.7156 126.333 66.6716 124.363C67.7457 121.094 75.3564 108.367 75.3564 108.367L119.659 93.4307C119.659 93.4307 136.294 89.535 131.185 104.013C126.076 118.491 144.015 106.656 169.851 121.363C183.3 129.018 191.399 133.318 191.721 152.173C191.928 164.309 189.885 177.321 172.466 188.833C154.614 200.631 80.9196 207.642 58.9421 183.208C50.2163 174.251 53.8809 171.284 48.2824 168.038C44.7406 159.694 41.9383 146.464 49.1525 137.774Z" fill="#F2BC3E"/>
<path d="M49.1525 137.774C56.3667 129.085 58.7156 126.333 66.6716 124.363C67.7457 121.094 75.3564 108.367 75.3564 108.367L119.659 93.4307C119.659 93.4307 136.294 89.535 131.185 104.013C126.076 118.491 144.015 106.656 169.851 121.363C183.3 129.018 191.399 133.318 191.721 152.173C191.928 164.309 189.885 177.321 172.466 188.833C154.614 200.631 80.9196 207.642 58.9421 183.208C50.2163 174.251 53.8809 171.284 48.2824 168.038C44.7406 159.694 41.9383 146.464 49.1525 137.774Z" fill="url(#paint0_linear_603_140)" fill-opacity="0.2"/>
<path d="M164.586 119.731C167.702 116.298 169.359 114.397 172.441 110.066C174.904 106.605 175.461 102.292 179.15 100.185C183.962 97.4363 186.123 97.8347 189.608 99.9662C197.665 105.69 196.455 111.125 196.185 115.462C201.658 118.412 204.213 124.146 202.384 130.064C200.554 135.983 197.39 135.698 193.598 138.366C192.315 140.314 189.886 142.049 189.886 142.049C189.886 142.049 184.933 134.33 180.917 130.032C175.768 124.524 172.525 122.691 164.586 119.731Z" fill="#F4B040"/>
<path d="M188.65 105.994C189.434 106.629 188.893 111.851 187.134 114.023C184.152 117.111 177.966 122.719 177.538 122.372C177.111 122.026 180.588 111.545 182.347 109.373C184.106 107.201 187.866 105.359 188.65 105.994Z" fill="#DB9F3E"/>
<path d="M194.8 117.513C195.327 118.098 194.167 121.169 192.546 122.628C189.869 124.645 183.713 129.632 183.426 129.313C183.138 128.994 186.377 123.84 190.431 119.305C192.053 117.845 194.273 116.928 194.8 117.513Z" fill="#DB9F3E"/>
<path d="M198.46 126.312C198.87 126.767 197.989 128.862 196.728 129.997C195.022 131.776 189.62 136.171 189.396 135.923C189.173 135.675 191.544 131.22 194.696 127.694C195.956 126.559 198.05 125.857 198.46 126.312Z" fill="#DB9F3E"/>
<path d="M143.259 54.574C152.551 76.4634 142.844 102.932 120.955 112.224C103.662 122.026 41.1824 107.399 62.4838 93.7849C54.5697 83.4247 59.7079 35.8747 85.6629 29.0816C111.706 20.8367 133.968 32.6847 143.259 54.574Z" fill="#F2BC3E"/>
<path d="M130.11 107.279C130.11 107.279 121.778 116.684 102.613 117.896C84.1172 119.064 78.9952 112.798 75.0486 110.957C82.5263 112.002 87.5752 114.783 100.327 114.997C111.679 114.399 130.11 107.279 130.11 107.279Z" fill="#DB9F3E"/>
<path d="M63.1058 86.1371C68.2821 81.325 66.0612 71.6097 73.0637 70.654C81.7007 69.4752 83.2345 79.701 88.7358 86.8615C102.356 94.0928 113.382 89.4126 116.671 97.1619C112.397 102.515 104.082 105.906 95.2964 107.289C87.3844 108.533 76.8887 107.006 70.4775 105.159C58.51 99.335 48.4441 109.593 46.2292 98.5755C48.0065 88.6771 57.9296 90.9492 63.1058 86.1371Z" fill="#D64D00"/>
<path d="M60.1365 96.5405C65.6173 97.0233 68.9231 99.8401 74.1435 102.196C80.005 103.577 83.3087 104.633 89.1809 105.309C100.445 106.16 110.024 101.385 117.096 97.333C108.868 103.634 109.031 105.675 93.0829 107.873C77.1344 110.071 74.7675 106.152 63.0459 103.395C58.6167 102.661 52.7048 106.373 51.7477 100.804C52.5673 96.9356 57.0737 96.7809 60.1365 96.5405Z" fill="#E16300"/>
<path d="M78.2371 84.914C77.9213 83.9423 77.3021 80.1604 77.9823 79.9394C78.6625 79.7184 80.3845 83.142 80.7002 84.1137C81.0159 85.0853 80.7205 86.0522 80.0403 86.2732C79.3601 86.4942 78.5528 85.8857 78.2371 84.914Z" fill="black"/>
<g filter="url(#filter0_d_603_140)">
<ellipse cx="103.111" cy="72.671" rx="9.7121" ry="9.7121" transform="rotate(-23 103.111 72.671)" fill="black"/>
<circle cx="101.855" cy="67.2255" r="3.5611" transform="rotate(-23 101.855 67.2255)" fill="#D9D9D9"/>
</g>
<path d="M64.7621 68.199C64.0676 72.3624 62.7405 75.0359 60.989 77.5379C59.9519 76.2196 59.1713 74.0843 59.3712 71.5375C59.6116 68.4757 59.5319 61.9736 61.8511 61.3409C65.1939 59.5702 65.2227 65.438 64.7621 68.199Z" fill="black"/>
<ellipse cx="62.4426" cy="64.7215" rx="1.61868" ry="2.15581" transform="rotate(13 62.4426 64.7215)" fill="#D9D9D9"/>
<path d="M53.9844 141.702C50.0764 153.208 47.9356 157.282 51.0818 169.663C49.2491 171.144 41.1921 165.42 41.7406 154.284C41.9915 143.275 48.3655 131.778 61.7756 126.086C71.9796 121.754 60.024 128.588 53.9844 141.702Z" fill="#F4B040"/>
<path d="M189.679 152.331C191.526 158.418 187.311 172.681 172.498 178.968C157.686 185.256 137.413 176.681 131.195 162.033C124.978 147.386 123.134 133.1 146.316 128.887C155.132 127.285 171.955 127.148 176.011 134.218C177.464 137.641 170.672 142.583 173.422 145.517C176.656 148.968 187.031 143.609 189.679 152.331Z" fill="#F4B040"/>
<path d="M170.864 135.348C171.704 136.927 167.938 141.086 163.564 143.412C156.558 146.386 141.848 152.941 141.39 152.08C140.933 151.219 155.77 139.762 160.145 137.436C164.519 135.111 170.025 133.77 170.864 135.348Z" fill="#DB9F3E"/>
<path d="M184.631 154.31C185.124 156.028 180.576 159.314 175.814 160.679C168.343 162.132 152.591 165.485 152.323 164.547C152.054 163.61 168.949 155.489 173.712 154.123C178.474 152.758 184.138 152.591 184.631 154.31Z" fill="#DB9F3E"/>
<defs>
<filter id="filter0_d_603_140" x="93.3964" y="59.9564" width="27.4292" height="27.4292" filterUnits="userSpaceOnUse" color-interpolation-filters="sRGB">
<feFlood flood-opacity="0" result="BackgroundImageFix"/>
<feColorMatrix in="SourceAlpha" type="matrix" values="0 0 0 0 0 0 0 0 0 0 0 0 0 0 0 0 0 0 127 0" result="hardAlpha"/>
<feOffset dx="4" dy="1"/>
<feGaussianBlur stdDeviation="2"/>
<feComposite in2="hardAlpha" operator="out"/>
<feColorMatrix type="matrix" values="0 0 0 0 0.839216 0 0 0 0 0.301961 0 0 0 0 0 0 0 0 0.28 0"/>
<feBlend mode="normal" in2="BackgroundImageFix" result="effect1_dropShadow_603_140"/>
<feBlend mode="normal" in="SourceGraphic" in2="effect1_dropShadow_603_140" result="shape"/>
</filter>
<linearGradient id="paint0_linear_603_140" x1="83.2027" y1="198.935" x2="122.397" y2="149.591" gradientUnits="userSpaceOnUse">
<stop offset="0.071692" stop-color="#BD0000" stop-opacity="0.21"/>
<stop offset="0.424129" stop-color="#C60000" stop-opacity="0"/>
</linearGradient>
</defs>
</svg>
