<svg width="1920" height="1551" viewBox="0 0 1920 1551" fill="none" xmlns="http://www.w3.org/2000/svg">
<path d="M1909.62 -163C1766.97 -48.6206 1650.83 68.82 1736.76 213.646C1872.27 147.411 1935.53 315.187 1824.73 365.886C1682.95 482.043 1829.93 553.479 1846.07 645.157C1889.05 889.334 1762.86 788.006 1828.51 1032.18C1913.4 1249.2 1737.58 1248.68 1731.89 1209.63C1726.2 1170.58 1766.49 1144.36 1795.65 1170.58C1868.81 1236.36 1824.81 1323.26 1754.13 1364.84C1670.1 1414.27 1623.64 1454.8 1637.97 1581.33" stroke="#03D1D0" stroke-width="15"/>
<path d="M1904.39 -132.67C1761.75 -18.2908 1641.35 134.069 1695.44 203.92C1860.33 124.465 1885.64 317.862 1793.59 362.392C1638.3 454.506 1829.39 643.674 1855.95 723.254C1918.99 912.071 1723.32 777.131 1819.5 1106.12C1855.74 1230.08 1751.66 1229.9 1751.66 1193.81C1751.66 1157.73 1780.54 1135.67 1819.5 1166.63C1858.46 1197.59 1868.52 1288.22 1789.44 1359.4C1710.35 1430.58 1638.19 1359.4 1611 1580.35" stroke="#960000" stroke-width="10"/>
<path d="M1920 -123.457C1777.35 -9.07777 1656.96 143.283 1711.05 213.133C1875.94 133.678 1901.24 327.075 1809.2 371.605C1658.24 463.754 1809.2 572.497 1871.56 732.467C1943.86 917.935 1738.93 786.345 1835.11 1115.34C1871.34 1239.29 1767.27 1239.11 1767.27 1203.03C1767.27 1166.94 1796.15 1144.88 1835.11 1175.84C1874.07 1206.8 1884.13 1297.44 1805.04 1368.61C1725.96 1439.79 1653.79 1368.61 1626.61 1589.56" stroke="#03D1D0" stroke-width="3"/>
<path d="M1920 -81.9371C1777.35 32.4422 1656.96 184.803 1711.05 254.653C1875.94 175.198 1901.24 368.595 1809.2 413.125C1658.24 505.274 1809.2 614.017 1871.56 773.987C1943.86 959.455 1738.93 827.865 1835.11 1156.86C1871.34 1280.81 1711.05 1253.44 1711.05 1217.36C1711.05 1120.17 1792.19 1090.01 1835.11 1217.36C1874.07 1248.32 1902.91 1338.64 1767.27 1410.81C1693.33 1450.14 1660.22 1458.75 1626.61 1631.08" stroke="#03D1D0" stroke-width="3"/>
<path d="M69.3535 -57.3147C189.644 132.119 278.191 334.043 179.405 600.328C-14.3899 1122.72 60.0046 1561.91 83.2541 1619.26" stroke="#03D1D0" stroke-width="14"/>
<path d="M51.7698 -40.0185C172.061 149.416 260.607 351.339 161.821 617.624C-31.9736 1140.01 42.4208 1579.21 65.6704 1636.56" stroke="#03D1D0" stroke-width="3"/>
<path d="M94.2161 -94.9672C214.507 94.467 256.752 267.776 157.966 534.061C-35.8286 1056.45 121.187 1643.54 144.437 1700.89" stroke="#03D1D0" stroke-width="3"/>
<path d="M-117.307 -81.3643C156.383 51.5459 277.911 414.237 166.657 692.411C-14.2346 1144.7 -42.724 1247.53 75.1431 1693.82" stroke="#960000" stroke-width="10"/>
<path d="M-36 874.451C221.5 1073.34 -11.2413 1242.06 348 1570.31" stroke="#960000" stroke-width="12"/>
<path d="M-24 854C233.5 1052.89 0.758698 1221.61 360 1549.86" stroke="#03D1D0" stroke-width="3"/>
<path d="M-36 914.331C133.808 1045.49 147 1174.57 147 1263.54C147 1352.5 198.66 1464.15 321 1575.93" stroke="#03D1D0" stroke-width="6"/>
<path d="M-56 874.451C113.808 1005.61 126 1154.63 126 1243.6C126 1332.56 139 1402.61 305.5 1579" stroke="#03D1D0" stroke-width="3"/>
</svg>
