<svg width="253" height="283" viewBox="0 0 253 283" fill="none" xmlns="http://www.w3.org/2000/svg">
<path d="M24.605 133.887C40.1051 125.887 45.105 123.393 57.605 125.393C61.105 121.393 79.605 107.893 79.605 107.893L151.603 113.393C151.603 113.393 177.603 117.893 161.603 135.393C145.603 152.893 178.25 146.893 206.105 183.393C220.605 202.393 229.525 213.393 218.603 240.393C211.574 257.771 200.818 275.038 169.105 280.893C136.607 286.893 27.6051 252.387 11.105 204.387C4.10503 186.387 11.105 184.381 5.10498 176.387C5.10498 162.387 9.10489 141.887 24.605 133.887Z" fill="#F2BC3E"/>
<path d="M24.605 133.887C40.1051 125.887 45.105 123.393 57.605 125.393C61.105 121.393 79.605 107.893 79.605 107.893L151.603 113.393C151.603 113.393 177.603 117.893 161.603 135.393C145.603 152.893 178.25 146.893 206.105 183.393C220.605 202.393 229.525 213.393 218.603 240.393C211.574 257.771 200.818 275.038 169.105 280.893C136.607 286.893 27.6051 252.387 11.105 204.387C4.10503 186.387 11.105 184.381 5.10498 176.387C5.10498 162.387 9.10489 141.887 24.605 133.887Z" fill="url(#paint0_linear_533_16)" fill-opacity="0.2"/>
<path d="M199.604 177.897C206.105 174.896 209.609 173.194 216.604 168.896C222.195 165.462 225.589 159.666 232.104 158.897C240.605 157.893 243.437 159.763 247.104 164.897C255.105 177.897 250.105 184.893 247.104 190.897C253.105 198.393 253.277 208.086 247.104 215.397C240.932 222.707 236.605 220.393 229.604 221.897C226.605 223.893 222.105 224.893 222.105 224.893C222.105 224.893 219.722 210.931 216.604 202.397C212.609 191.458 209.105 186.896 199.604 177.897Z" fill="#F4B040"/>
<path d="M242.105 172.888C242.837 174.263 238.917 181.361 235.105 183.388C229.001 185.979 216.823 190.218 216.424 189.467C216.026 188.717 227.294 175.915 231.105 173.888C234.917 171.861 241.374 171.512 242.105 172.888Z" fill="#DB9F3E"/>
<path d="M243.897 192.975C244.293 194.125 240.791 197.791 237.605 198.888C232.583 200.14 220.821 203.515 220.605 202.888C220.39 202.261 228.105 196.888 236.605 192.888C239.791 191.791 243.501 191.826 243.897 192.975Z" fill="#DB9F3E"/>
<path d="M243.791 207.694C244.099 208.588 241.582 211.035 239.105 211.888C235.605 213.388 225.273 216.375 225.105 215.888C224.938 215.4 230.996 210.498 237.605 207.388C240.082 206.535 243.483 206.8 243.791 207.694Z" fill="#DB9F3E"/>
<path d="M208.604 72.3931C208.604 109.12 178.831 140.893 142.104 140.893C111.605 144.393 31.6047 85.8931 70.1043 79.3931C65.105 59.8882 101.105 -4.6123 142.104 1.39306C184.105 5.3877 208.604 35.6661 208.604 72.3931Z" fill="#F2BC3E"/>
<path d="M158.105 139.388C158.105 139.388 140.583 147.732 112.605 137.888C85.605 128.388 82.105 116.387 77.605 111.389C87.605 117.388 93.105 124.388 111.105 132.388C127.605 138.387 158.105 139.388 158.105 139.388Z" fill="#DB9F3E"/>
<path d="M75.6043 68.8957C85.8672 65.1782 88.5727 50.0257 99.1049 52.8928C112.095 56.4292 108.105 71.8926 111.605 85.3926C126.605 103.893 145.104 103.893 145.104 116.895C135.797 121.926 121.93 121.729 108.605 118.393C96.6053 115.388 82.6052 106.883 74.6052 100.388C61.1058 84.8856 40.6049 93.3947 44.1047 76.3947C52.6049 63.3947 65.3414 72.6133 75.6043 68.8957Z" fill="#D64D00"/>
<path d="M65.105 81.8942C72.6055 85.8881 75.6055 91.8876 81.6055 98.3876C89.1055 103.888 93.1649 107.383 101.105 111.888C116.605 119.894 133.105 118.888 145.605 117.394C130.105 121.388 129.105 124.388 105.105 117.888C81.1055 111.388 80.1055 104.388 65.105 93.3942C59.2508 89.6784 48.6055 91.3888 50.6056 82.8934C54.1055 77.8881 60.6055 80.3876 65.105 81.8942Z" fill="#E16300"/>
<path d="M97.8546 76.2875C97.9921 74.7156 99.394 68.9653 100.494 69.0615C101.595 69.1578 101.977 75.0642 101.839 76.6362C101.702 78.2081 100.698 79.4044 99.5979 79.3081C98.4976 79.2118 97.717 77.8595 97.8546 76.2875Z" fill="black"/>
<g filter="url(#filter0_d_533_16)">
<circle cx="140.605" cy="73.8926" r="15" fill="black"/>
<circle cx="142.105" cy="65.3926" r="5.5" fill="#D9D9D9"/>
</g>
<path d="M88.7842 44.3926C85.2842 49.8926 81.7841 52.8926 77.7841 55.3926C77.1053 52.8926 77.2841 49.3857 79.1052 45.8857C81.2947 41.6779 85.1051 32.3857 88.7842 32.8857C94.6051 32.3857 91.1051 40.7453 88.7842 44.3926Z" fill="black"/>
<ellipse cx="87.585" cy="38.0489" rx="2.5" ry="3.32957" transform="rotate(36 87.585 38.0489)" fill="#D9D9D9"/>
<path d="M29.105 142.387C16.6052 156.387 11.1033 160.886 8.10472 180.387C4.60521 181.387 -3.39489 168.387 4.10476 152.887C11.105 137.387 27.1052 124.888 49.6052 124.888C66.7261 124.888 45.6052 127.388 29.105 142.387Z" fill="#F4B040"/>
<path d="M215.605 239.387C214.559 249.154 199.958 266.888 175.105 266.888C150.253 266.888 126.605 242.463 126.605 217.887C126.605 193.31 132.605 171.888 168.105 179.888C181.605 182.93 205.605 192.888 207.105 205.388C207.105 211.13 194.467 214.058 196.605 219.888C199.121 226.746 217.105 225.388 215.605 239.387Z" fill="#F4B040"/>
<path d="M199.106 203.888C199.346 206.639 191.483 210.279 183.861 210.946C172.106 210.946 147.236 211.388 147.106 209.888C146.975 208.388 174.983 201.054 182.606 200.388C190.228 199.721 198.865 201.137 199.106 203.888Z" fill="#DB9F3E"/>
<path d="M207.235 239.153C206.899 241.893 198.45 243.82 190.855 242.887C179.358 240.443 154.94 235.705 155.124 234.21C155.308 232.716 184.229 231.366 191.823 232.298C199.418 233.231 207.572 236.412 207.235 239.153Z" fill="#DB9F3E"/>
<defs>
<filter id="filter0_d_533_16" x="125.605" y="55.8926" width="38" height="38" filterUnits="userSpaceOnUse" color-interpolation-filters="sRGB">
<feFlood flood-opacity="0" result="BackgroundImageFix"/>
<feColorMatrix in="SourceAlpha" type="matrix" values="0 0 0 0 0 0 0 0 0 0 0 0 0 0 0 0 0 0 127 0" result="hardAlpha"/>
<feOffset dx="4" dy="1"/>
<feGaussianBlur stdDeviation="2"/>
<feComposite in2="hardAlpha" operator="out"/>
<feColorMatrix type="matrix" values="0 0 0 0 0.839216 0 0 0 0 0.301961 0 0 0 0 0 0 0 0 0.28 0"/>
<feBlend mode="normal" in2="BackgroundImageFix" result="effect1_dropShadow_533_16"/>
<feBlend mode="normal" in="SourceGraphic" in2="effect1_dropShadow_533_16" result="shape"/>
</filter>
<linearGradient id="paint0_linear_533_16" x1="36.105" y1="241.387" x2="121.605" y2="194.887" gradientUnits="userSpaceOnUse">
<stop offset="0.071692" stop-color="#BD0000" stop-opacity="0.21"/>
<stop offset="0.424129" stop-color="#C60000" stop-opacity="0"/>
</linearGradient>
</defs>
</svg>
